<?xml version="1.0" encoding="utf-8"?>
<!-- Generator: Adobe Illustrator 15.0.2, SVG Export Plug-In . SVG Version: 6.00 Build 0)  -->
<!DOCTYPE svg PUBLIC "-//W3C//DTD SVG 1.1//EN" "http://www.w3.org/Graphics/SVG/1.1/DTD/svg11.dtd">
<svg version="1.1" id="Layer_1" xmlns="http://www.w3.org/2000/svg" xmlns:xlink="http://www.w3.org/1999/xlink" x="0px" y="0px"
	 width="325.12px" height="151.971px" viewBox="0 0 325.12 151.971" enable-background="new 0 0 325.12 151.971"
	 xml:space="preserve" fill="#374750">
<g>
	<path d="M4.557,104.352l10.461-1.797V28.944L4.557,27.147v-8.15h72.199v22.462H65.974l-1.026-12.515H27.66v32.217h36.132v9.947
		H27.66v31.447l10.461,1.797v8.086H4.557V104.352z"/>
	<path d="M166.282,66.423c0,13.605-3.905,24.9-11.712,33.885c-7.808,8.985-17.916,13.478-30.323,13.478
		c-12.065,0-21.863-4.492-29.393-13.478c-7.531-8.984-11.295-20.279-11.295-33.885v-1.348c0-13.562,3.765-24.857,11.295-33.885
		c7.53-9.027,17.328-13.542,29.393-13.542c12.407,0,22.515,4.515,30.323,13.542c7.808,9.028,11.712,20.323,11.712,33.885V66.423z
		 M153.64,64.947c0-10.867-2.599-19.734-7.798-26.602c-5.198-6.867-12.397-10.3-21.595-10.3c-8.814,0-15.691,3.444-20.633,10.333
		c-4.942,6.889-7.413,15.745-7.413,26.569v1.476c0,10.953,2.471,19.862,7.413,26.729c4.941,6.867,11.818,10.301,20.633,10.301
		c9.327,0,16.558-3.423,21.692-10.269c5.134-6.845,7.701-15.766,7.701-26.762V64.947z"/>
	<path d="M175.781,112.438v-8.086l10.461-1.797V28.944l-10.461-1.797v-8.15h10.461h12.643h10.46v8.15l-10.46,1.797v73.611h32.473
		l0.963-10.718h10.782v20.601H175.781z"/>
	<path d="M252.729,112.438v-8.086l10.461-1.797V28.944l-10.461-1.797v-8.15h10.461h12.643h10.461v8.15l-10.461,1.797v73.611h32.474
		l0.963-10.718h10.781v20.601H252.729z"/>
</g>
<g>
	<path d="M4.715,145.865l2.276-0.391v-16.016l-2.276-0.392v-1.773h15.709v4.888h-2.346l-0.224-2.723H9.742v7.009h7.862v2.165H9.742
		v6.842l2.276,0.391v1.76H4.715V145.865z"/>
	<path d="M22.379,134.29v-1.773h4.734l0.265,2.192c0.428-0.772,0.957-1.378,1.585-1.815s1.347-0.656,2.157-0.656
		c0.214,0,0.435,0.017,0.663,0.049c0.228,0.033,0.403,0.067,0.524,0.104l-0.363,2.556l-1.564-0.084c-0.726,0-1.336,0.17-1.829,0.51
		c-0.494,0.34-0.875,0.816-1.145,1.432v8.671l2.276,0.391v1.76h-7.303v-1.76l2.276-0.391V134.68L22.379,134.29z"/>
	<path d="M34.206,145.865l2.276-0.391V134.68l-2.276-0.391v-1.773h5.027v12.958l2.276,0.391v1.76h-7.303V145.865z M39.233,128.648
		h-2.751v-2.807h2.751V128.648z"/>
	<path d="M50.501,147.917c-2.104,0-3.777-0.7-5.02-2.102c-1.243-1.4-1.864-3.218-1.864-5.452v-0.614c0-2.15,0.64-3.94,1.92-5.369
		c1.28-1.429,2.795-2.144,4.545-2.144c2.029,0,3.568,0.614,4.615,1.843c1.047,1.229,1.571,2.868,1.571,4.915v1.718h-9.802
		l-0.042,0.07c0.028,1.452,0.396,2.646,1.103,3.581s1.699,1.403,2.974,1.403c0.931,0,1.748-0.133,2.451-0.397
		c0.703-0.266,1.31-0.631,1.822-1.097l1.075,1.788c-0.54,0.521-1.254,0.961-2.144,1.319S51.749,147.917,50.501,147.917z
		 M50.083,134.401c-0.921,0-1.708,0.389-2.36,1.166c-0.651,0.777-1.052,1.753-1.201,2.926l0.028,0.069h6.968v-0.363
		c0-1.079-0.289-1.982-0.866-2.708C52.075,134.764,51.218,134.401,50.083,134.401z"/>
	<path d="M58.573,145.865l2.276-0.391V134.68l-2.276-0.391v-1.773h4.733l0.196,2.248c0.502-0.801,1.133-1.422,1.892-1.864
		c0.758-0.441,1.622-0.663,2.59-0.663c1.629,0,2.891,0.478,3.784,1.432s1.34,2.427,1.34,4.419v7.387l2.276,0.391v1.76h-7.303v-1.76
		l2.276-0.391v-7.331c0-1.331-0.263-2.275-0.789-2.834s-1.329-0.838-2.409-0.838c-0.792,0-1.492,0.19-2.102,0.572
		s-1.096,0.903-1.459,1.563v8.867l2.276,0.391v1.76h-7.303V145.865z"/>
	<path d="M87.421,145.823c-0.493,0.689-1.096,1.211-1.808,1.564c-0.712,0.354-1.538,0.53-2.479,0.53
		c-1.843,0-3.284-0.668-4.322-2.004c-1.038-1.335-1.557-3.093-1.557-5.271v-0.294c0-2.43,0.519-4.389,1.557-5.878
		s2.488-2.234,4.35-2.234c0.894,0,1.683,0.165,2.367,0.496c0.684,0.33,1.268,0.808,1.752,1.431v-6.157l-2.276-0.392v-1.773h2.276
		h2.751v19.633l2.276,0.391v1.76h-4.664L87.421,145.823z M80.006,140.643c0,1.518,0.312,2.736,0.936,3.658s1.587,1.382,2.891,1.382
		c0.819,0,1.508-0.186,2.066-0.558c0.559-0.373,1.02-0.898,1.382-1.578v-7.01c-0.354-0.633-0.814-1.136-1.382-1.508
		s-1.248-0.559-2.039-0.559c-1.313,0-2.283,0.544-2.911,1.634c-0.628,1.089-0.943,2.504-0.943,4.244V140.643z"/>
	<path d="M105.965,137.263h-2.067l-0.447-1.814c-0.335-0.316-0.756-0.57-1.264-0.762c-0.507-0.19-1.082-0.286-1.725-0.286
		c-0.978,0-1.704,0.215-2.178,0.643c-0.475,0.429-0.712,0.945-0.712,1.55c0,0.596,0.209,1.066,0.628,1.41
		c0.418,0.345,1.271,0.652,2.555,0.922c1.908,0.41,3.328,0.966,4.259,1.669c0.931,0.703,1.396,1.646,1.396,2.827
		c0,1.341-0.542,2.425-1.627,3.254c-1.084,0.828-2.502,1.242-4.252,1.242c-1.145,0-2.173-0.133-3.086-0.397
		c-0.912-0.266-1.727-0.649-2.443-1.152l-0.014-3.449h2.067l0.517,2.025c0.316,0.288,0.747,0.498,1.292,0.628
		c0.544,0.131,1.101,0.195,1.668,0.195c0.978,0,1.743-0.197,2.297-0.593c0.554-0.396,0.831-0.915,0.831-1.558
		c0-0.604-0.23-1.103-0.691-1.494c-0.46-0.391-1.333-0.73-2.618-1.019c-1.834-0.4-3.217-0.945-4.147-1.634
		c-0.931-0.689-1.396-1.62-1.396-2.793c0-1.229,0.524-2.276,1.571-3.142c1.047-0.866,2.409-1.299,4.084-1.299
		c1.145,0,2.174,0.149,3.086,0.447s1.671,0.712,2.276,1.242L105.965,137.263z"/>
	<path d="M116.102,139.93c0-2.233,0.605-4.074,1.815-5.522c1.21-1.447,2.854-2.171,4.929-2.171c2.085,0,3.735,0.722,4.95,2.164
		c1.215,1.443,1.822,3.286,1.822,5.529v0.308c0,2.253-0.605,4.096-1.815,5.529s-2.854,2.15-4.929,2.15
		c-2.094,0-3.747-0.719-4.957-2.157s-1.815-3.279-1.815-5.522V139.93z M118.853,140.238c0,1.602,0.337,2.923,1.013,3.966
		c0.675,1.043,1.678,1.563,3.009,1.563c1.303,0,2.295-0.521,2.975-1.563c0.679-1.043,1.019-2.364,1.019-3.966v-0.308
		c0-1.582-0.34-2.899-1.019-3.951c-0.68-1.052-1.681-1.578-3.002-1.578s-2.318,0.526-2.988,1.578
		c-0.67,1.052-1.005,2.369-1.005,3.951V140.238z"/>
	<path d="M131.867,134.555v-2.039h2.36v-1.913c0-1.61,0.421-2.855,1.264-3.735c0.842-0.88,2.018-1.319,3.526-1.319
		c0.316,0,0.635,0.025,0.956,0.077c0.321,0.051,0.677,0.123,1.068,0.216l-0.335,2.095c-0.167-0.037-0.37-0.069-0.607-0.098
		s-0.482-0.042-0.733-0.042c-0.81,0-1.41,0.24-1.801,0.719c-0.391,0.479-0.586,1.176-0.586,2.088v1.913h3.156v2.039h-3.156v10.919
		l2.276,0.391v1.76h-7.303v-1.76l2.276-0.391v-10.919H131.867z"/>
	<path d="M149.153,147.625v-1.76l2.276-0.391v-16.016l-2.276-0.392v-1.773h2.276h2.75h2.276v1.773l-2.276,0.392v16.016h7.066
		l0.209-2.332h2.346v4.482H149.153z"/>
	<path d="M176.005,147.625c-0.084-0.409-0.149-0.777-0.196-1.104c-0.046-0.325-0.079-0.651-0.098-0.977
		c-0.531,0.679-1.194,1.245-1.99,1.696s-1.646,0.677-2.548,0.677c-1.573,0-2.77-0.384-3.588-1.151
		c-0.819-0.769-1.229-1.851-1.229-3.247c0-1.434,0.58-2.539,1.738-3.316c1.159-0.776,2.749-1.166,4.769-1.166h2.835v-1.759
		c0-0.885-0.279-1.585-0.838-2.102s-1.336-0.775-2.332-0.775c-0.689,0-1.296,0.089-1.822,0.266s-0.952,0.419-1.278,0.726
		l-0.293,1.592h-2.123v-2.932c0.689-0.55,1.522-0.989,2.5-1.319c0.978-0.331,2.039-0.496,3.184-0.496c1.713,0,3.1,0.438,4.161,1.313
		c1.062,0.875,1.592,2.127,1.592,3.756v7.275c0,0.195,0.002,0.387,0.007,0.572c0.004,0.187,0.016,0.373,0.035,0.559l1.117,0.153
		v1.76H176.005z M171.579,145.614c0.913,0,1.746-0.219,2.5-0.656c0.754-0.438,1.294-0.964,1.62-1.578v-2.485h-2.933
		c-1.126,0-2.018,0.261-2.674,0.782s-0.984,1.154-0.984,1.898c0,0.661,0.205,1.166,0.614,1.516
		C170.131,145.439,170.75,145.614,171.579,145.614z"/>
	<path d="M186.869,134.29l-1.815,0.279l3.114,8.602l0.251,1.089h0.084l0.265-1.089l3.016-8.602l-1.829-0.279v-1.773h5.836v1.773
		l-1.243,0.209l-5.069,13.126h-2.081l-5.125-13.126l-1.243-0.209v-1.773h5.837V134.29z"/>
	<path d="M204.364,147.917c-2.104,0-3.776-0.7-5.02-2.102c-1.243-1.4-1.864-3.218-1.864-5.452v-0.614c0-2.15,0.64-3.94,1.92-5.369
		c1.28-1.429,2.795-2.144,4.545-2.144c2.029,0,3.567,0.614,4.614,1.843c1.048,1.229,1.571,2.868,1.571,4.915v1.718h-9.802
		l-0.042,0.07c0.028,1.452,0.396,2.646,1.103,3.581c0.708,0.936,1.698,1.403,2.974,1.403c0.932,0,1.748-0.133,2.451-0.397
		c0.703-0.266,1.311-0.631,1.822-1.097l1.075,1.788c-0.54,0.521-1.255,0.961-2.144,1.319S205.612,147.917,204.364,147.917z
		 M203.946,134.401c-0.922,0-1.709,0.389-2.36,1.166s-1.052,1.753-1.201,2.926l0.028,0.069h6.968v-0.363
		c0-1.079-0.289-1.982-0.865-2.708C205.938,134.764,205.081,134.401,203.946,134.401z"/>
	<path d="M212.464,127.615v-1.773h5.026v19.633l2.276,0.391v1.76h-7.303v-1.76l2.275-0.391v-17.468L212.464,127.615z"/>
	<path d="M221.471,127.615v-1.773h5.026v19.633l2.276,0.391v1.76h-7.303v-1.76l2.275-0.391v-17.468L221.471,127.615z"/>
	<path d="M234.316,128.411c0,0.931-0.227,1.895-0.678,2.891s-1.063,1.815-1.836,2.458l-1.564-1.034
		c0.438-0.66,0.769-1.338,0.992-2.031c0.223-0.693,0.335-1.44,0.335-2.241v-2.611h2.751V128.411z"/>
	<path d="M247.135,137.263h-2.066l-0.447-1.814c-0.335-0.316-0.757-0.57-1.264-0.762c-0.508-0.19-1.082-0.286-1.725-0.286
		c-0.978,0-1.703,0.215-2.178,0.643c-0.476,0.429-0.713,0.945-0.713,1.55c0,0.596,0.21,1.066,0.629,1.41
		c0.419,0.345,1.271,0.652,2.555,0.922c1.908,0.41,3.328,0.966,4.259,1.669c0.932,0.703,1.396,1.646,1.396,2.827
		c0,1.341-0.542,2.425-1.626,3.254c-1.085,0.828-2.502,1.242-4.252,1.242c-1.146,0-2.174-0.133-3.086-0.397
		c-0.913-0.266-1.728-0.649-2.444-1.152l-0.014-3.449h2.066l0.517,2.025c0.316,0.288,0.747,0.498,1.292,0.628
		c0.545,0.131,1.101,0.195,1.669,0.195c0.978,0,1.743-0.197,2.297-0.593s0.831-0.915,0.831-1.558c0-0.604-0.23-1.103-0.691-1.494
		c-0.461-0.391-1.334-0.73-2.618-1.019c-1.834-0.4-3.217-0.945-4.147-1.634c-0.931-0.689-1.396-1.62-1.396-2.793
		c0-1.229,0.523-2.276,1.571-3.142c1.047-0.866,2.408-1.299,4.084-1.299c1.146,0,2.174,0.149,3.086,0.447s1.671,0.712,2.276,1.242
		L247.135,137.263z"/>
	<path d="M257.007,147.625v-1.76l2.276-0.391v-16.016l-2.276-0.392v-1.773h2.276h2.751h2.275v1.773l-2.275,0.392v16.016h7.065
		l0.209-2.332h2.346v4.482H257.007z"/>
	<path d="M283.858,147.625c-0.083-0.409-0.148-0.777-0.195-1.104c-0.047-0.325-0.079-0.651-0.098-0.977
		c-0.53,0.679-1.193,1.245-1.989,1.696s-1.646,0.677-2.549,0.677c-1.573,0-2.77-0.384-3.589-1.151
		c-0.819-0.769-1.229-1.851-1.229-3.247c0-1.434,0.579-2.539,1.738-3.316c1.159-0.776,2.749-1.166,4.769-1.166h2.835v-1.759
		c0-0.885-0.279-1.585-0.838-2.102s-1.336-0.775-2.332-0.775c-0.689,0-1.297,0.089-1.822,0.266
		c-0.526,0.177-0.952,0.419-1.277,0.726l-0.294,1.592h-2.122v-2.932c0.688-0.55,1.522-0.989,2.5-1.319
		c0.977-0.331,2.038-0.496,3.184-0.496c1.712,0,3.1,0.438,4.161,1.313c1.061,0.875,1.592,2.127,1.592,3.756v7.275
		c0,0.195,0.002,0.387,0.007,0.572c0.004,0.187,0.016,0.373,0.035,0.559l1.116,0.153v1.76H283.858z M279.433,145.614
		c0.912,0,1.745-0.219,2.499-0.656s1.294-0.964,1.62-1.578v-2.485h-2.933c-1.126,0-2.018,0.261-2.674,0.782
		s-0.984,1.154-0.984,1.898c0,0.661,0.204,1.166,0.614,1.516C277.984,145.439,278.604,145.614,279.433,145.614z"/>
	<path d="M289.375,127.615v-1.773h5.026v12.623h1.76l3.226-3.993l-1.383-0.182v-1.773h6.325v1.773l-1.843,0.363l-3.979,4.747
		l4.845,6.13l1.718,0.335v1.76h-6.27v-1.76l1.41-0.182l-4.007-5.026h-1.802v4.817l2.276,0.391v1.76h-7.303v-1.76l2.275-0.391
		v-17.468L289.375,127.615z"/>
	<path d="M313.754,147.917c-2.104,0-3.777-0.7-5.02-2.102c-1.243-1.4-1.864-3.218-1.864-5.452v-0.614c0-2.15,0.64-3.94,1.92-5.369
		c1.279-1.429,2.795-2.144,4.545-2.144c2.029,0,3.567,0.614,4.615,1.843c1.047,1.229,1.57,2.868,1.57,4.915v1.718h-9.802
		l-0.042,0.07c0.027,1.452,0.396,2.646,1.103,3.581c0.708,0.936,1.699,1.403,2.975,1.403c0.931,0,1.748-0.133,2.45-0.397
		c0.703-0.266,1.311-0.631,1.822-1.097l1.075,1.788c-0.54,0.521-1.254,0.961-2.143,1.319
		C316.069,147.739,315.001,147.917,313.754,147.917z M313.335,134.401c-0.922,0-1.708,0.389-2.359,1.166
		c-0.652,0.777-1.053,1.753-1.201,2.926l0.028,0.069h6.968v-0.363c0-1.079-0.289-1.982-0.866-2.708
		C315.327,134.764,314.471,134.401,313.335,134.401z"/>
</g>
</svg>
