<?xml version="1.0" encoding="utf-8"?>
<!-- Generated by IcoMoon.io -->
<!DOCTYPE svg PUBLIC "-//W3C//DTD SVG 1.1//EN" "http://www.w3.org/Graphics/SVG/1.1/DTD/svg11.dtd">
<svg version="1.1" xmlns="http://www.w3.org/2000/svg" xmlns:xlink="http://www.w3.org/1999/xlink" width="20" height="21" viewBox="0 0 23 24">
<path fill="#fafafa" d="M22.5 19.5l-5.839-5.839c0.834-1.361 1.339-2.947 1.339-4.661 0-4.969-4.031-9-9-9s-9 4.031-9 9c0 4.969 4.031 9 9 9 1.715 0 3.3-0.505 4.661-1.336l5.839 5.836c0.41 0.41 1.090 0.407 1.5 0l1.5-1.5c0.41-0.41 0.41-1.090 0-1.5zM9 15c-3.313 0-6-2.687-6-6s2.687-6 6-6 6 2.687 6 6-2.687 6-6 6z"></path>
</svg>
