<?xml version="1.0" encoding="utf-8"?>
<!-- Generated by IcoMoon.io -->
<!DOCTYPE svg PUBLIC "-//W3C//DTD SVG 1.1//EN" "http://www.w3.org/Graphics/SVG/1.1/DTD/svg11.dtd">
<svg version="1.1" xmlns="http://www.w3.org/2000/svg" xmlns:xlink="http://www.w3.org/1999/xlink" width="176" height="56" viewBox="0 0 176 56">
<svg id="icon-triangle-up" width="12" height="16" viewBox="0 0 12 16" x="0" y="0">
<path fill="#000000" d="M5.996 4l-5.996 5.996h11.992l-5.996-5.996z"></path>
</svg>
<svg id="icon-triangle-down" width="12" height="16" viewBox="0 0 12 16" x="32" y="0">
<path fill="#000000" d="M0 6l5.996 5.996 5.996-5.996h-11.992z"></path>
</svg>
<svg id="icon-search" width="15" height="16" viewBox="0 0 15 16" x="64" y="0">
<path fill="#000000" d="M15 13l-3.893-3.893c0.556-0.907 0.893-1.964 0.893-3.107 0-3.313-2.688-6-6-6s-6 2.687-6 6c0 3.313 2.687 6 6 6 1.143 0 2.2-0.337 3.107-0.891l3.893 3.891c0.273 0.273 0.727 0.271 1 0l1-1c0.273-0.273 0.273-0.727 0-1zM6 10c-2.209 0-4-1.791-4-4s1.791-4 4-4 4 1.791 4 4-1.791 4-4 4z"></path>
</svg>
<svg id="icon-facebook" width="16" height="16" viewBox="0 0 16 16" x="96" y="0">
<path fill="#000000" d="M10.5 3c-1.381 0-2.5 1.119-2.5 2.5v1.5h-2v2h2v7h2v-7h2.25l0.5-2h-2.75v-1.5c0-0.276 0.224-0.5 0.5-0.5h2.5v-2h-2.5z"></path>
</svg>
<svg id="icon-twitter" width="16" height="16" viewBox="0 0 16 16" x="128" y="0">
<path fill="#000000" d="M16 3.038c-0.589 0.261-1.221 0.438-1.885 0.517 0.678-0.406 1.198-1.050 1.443-1.816-0.634 0.376-1.337 0.649-2.085 0.797-0.599-0.638-1.452-1.037-2.396-1.037-1.813 0-3.283 1.47-3.283 3.282 0 0.257 0.029 0.508 0.085 0.748-2.728-0.137-5.147-1.444-6.766-3.43-0.283 0.485-0.444 1.049-0.444 1.65 0 1.139 0.579 2.144 1.46 2.732-0.538-0.017-1.044-0.165-1.487-0.411-0 0.014-0 0.027-0 0.041 0 1.59 1.132 2.917 2.633 3.219-0.275 0.075-0.565 0.115-0.865 0.115-0.212 0-0.417-0.021-0.618-0.059 0.418 1.304 1.63 2.253 3.066 2.28-1.123 0.88-2.539 1.405-4.077 1.405-0.265 0-0.526-0.016-0.783-0.046 1.453 0.931 3.178 1.475 5.032 1.475 6.038 0 9.34-5.002 9.34-9.34 0-0.142-0.003-0.284-0.010-0.425 0.642-0.463 1.198-1.041 1.638-1.699z"></path>
</svg>
<svg id="icon-email" width="24" height="24" viewBox="0 0 24 24" x="0" y="32">
<path fill="#000000" d="M17.53 14.606c0 1.008 0.287 1.41 1.037 1.41 1.672 0 2.736-2.13 2.736-5.672 0-5.414-3.946-8.006-8.872-8.006-5.068 0-9.677 3.398-9.677 9.821 0 6.134 4.032 9.475 10.224 9.475 2.102 0 3.514-0.23 5.672-0.95l0.463 1.928c-2.131 0.692-4.409 0.893-6.164 0.893-8.122 0-12.472-4.464-12.472-11.347 0-6.941 5.041-11.664 11.982-11.664 7.229 0 11.058 4.32 11.058 9.619 0 4.493-1.41 7.92-5.845 7.92-2.017 0-3.341-0.806-3.514-2.593-0.518 1.987-1.901 2.593-3.774 2.593-2.506 0-4.608-1.931-4.608-5.818 0-3.917 1.844-6.336 5.156-6.336 1.757 0 2.851 0.691 3.338 1.786l0.836-1.526h2.419v8.468h0.002zM13.988 10.805c0-1.583-1.182-2.246-2.161-2.246-1.066 0-2.245 0.863-2.245 3.398 0 2.016 0.893 3.139 2.245 3.139 0.95 0 2.161-0.605 2.161-2.275v-2.016z"></path>
</svg>
<svg id="icon-keyboard-arrow-right" width="24" height="24" viewBox="0 0 24 24" x="40" y="32">
<path fill="#000000" d="M8.585 16.46l4.585-4.585-4.585-4.585 1.415-1.415 6 6-6 6z"></path>
</svg>
</svg>
